<?xml version="1.0" encoding="UTF-8"?>
<!DOCTYPE svg PUBLIC "-//W3C//DTD SVG 1.1//EN" "http://www.w3.org/Graphics/SVG/1.1/DTD/svg11.dtd">
<!-- Creator: CorelDRAW X7 -->
<svg xmlns="http://www.w3.org/2000/svg" xml:space="preserve" width="75mm" height="70mm" version="1.1" style="shape-rendering:geometricPrecision; text-rendering:geometricPrecision; image-rendering:optimizeQuality; fill-rule:evenodd; clip-rule:evenodd"
viewBox="0 0 7500 7000"
 xmlns:xlink="http://www.w3.org/1999/xlink">
 <defs>
  <style type="text/css">
   <![CDATA[
    .str3 {stroke:#FEFEFE;stroke-width:70.55}
    .str2 {stroke:#373435;stroke-width:70.55}
    .str0 {stroke:#00A859;stroke-width:17.64}
    .str1 {stroke:#00A859;stroke-width:7.62}
    .fil1 {fill:none}
    .fil2 {fill:#FEFEFE}
    .fil0 {fill:#00A859}
   ]]>
  </style>
   <clipPath id="id0">
    <path d="M192 1857l3542 -3542 3542 3542 -3542 3542 -3542 -3542z"/>
   </clipPath>
 </defs>
 <g id="Layer_x0020_1">
  <metadata id="CorelCorpID_0Corel-Layer"/>
  <g>
  </g>
  <g style="clip-path:url(#id0)">
   <g>
    <path class="fil0 str0" d="M3734 1621c1795,0 3250,1455 3250,3250 0,1795 -1455,3250 -3250,3250 -1795,0 -3250,-1455 -3250,-3250 0,-1795 1455,-3250 3250,-3250zm0 500c1519,0 2750,1231 2750,2750 0,1519 -1231,2750 -2750,2750 -1519,0 -2750,-1231 -2750,-2750 0,-1519 1231,-2750 2750,-2750z"/>
    <path class="fil0 str0" d="M3734 2596c1242,0 2250,1007 2250,2250 0,1243 -1008,2250 -2250,2250 -1243,0 -2250,-1007 -2250,-2250 0,-1243 1007,-2250 2250,-2250zm0 500c966,0 1750,783 1750,1750 0,966 -784,1750 -1750,1750 -967,0 -1750,-784 -1750,-1750 0,-967 783,-1750 1750,-1750z"/>
    <path class="fil0 str0" d="M3734 3596c690,0 1250,559 1250,1250 0,690 -560,1250 -1250,1250 -691,0 -1250,-560 -1250,-1250 0,-691 559,-1250 1250,-1250zm0 500c414,0 750,336 750,750 0,414 -336,750 -750,750 -414,0 -750,-336 -750,-750 0,-414 336,-750 750,-750z"/>
   </g>
  </g>
  <polygon class="fil1" points="192,1857 3734,-1685 7276,1857 3734,5399 "/>
  <circle class="fil0 str1" cx="3734" cy="4947" r="350"/>
  <circle class="fil0 str2" cx="4989" cy="4656" r="834"/>
  <path class="fil2 str3" d="M4894 4778c-10,-3 -19,-14 -27,-21l-190 -164c-9,0 -83,105 -92,117 -45,57 -36,35 13,82 58,55 149,125 210,180 8,7 14,14 22,21 15,13 88,78 96,77 4,-1 106,-134 121,-156 27,-38 63,-82 89,-118l270 -358c-3,-11 -6,-11 -14,-18 -21,-19 -112,-105 -125,-110l-174 217c-5,6 -8,11 -12,17 -32,40 -62,78 -94,118 -16,20 -77,102 -93,116z"/>
 </g>
</svg>
