<?xml version="1.0" encoding="UTF-8"?>
<!DOCTYPE svg PUBLIC "-//W3C//DTD SVG 1.1//EN" "http://www.w3.org/Graphics/SVG/1.1/DTD/svg11.dtd">
<!-- Creator: CorelDRAW X7 -->
<svg xmlns="http://www.w3.org/2000/svg" xml:space="preserve" width="75mm" height="70mm" version="1.1" style="shape-rendering:geometricPrecision; text-rendering:geometricPrecision; image-rendering:optimizeQuality; fill-rule:evenodd; clip-rule:evenodd"
viewBox="0 0 7500 7000"
 xmlns:xlink="http://www.w3.org/1999/xlink">
 <defs>
  <style type="text/css">
   <![CDATA[
    .str3 {stroke:#FEFEFE;stroke-width:141.11}
    .str2 {stroke:#373435;stroke-width:70.55}
    .str0 {stroke:#ED3237;stroke-width:17.64}
    .str1 {stroke:#ED3237;stroke-width:7.62}
    .fil1 {fill:none}
    .fil2 {fill:#FEFEFE}
    .fil0 {fill:#ED3237}
   ]]>
  </style>
   <clipPath id="id0">
    <path d="M192 1857l3542 -3542 3542 3542 -3542 3542 -3542 -3542z"/>
   </clipPath>
 </defs>
 <g id="Layer_x0020_1">
  <metadata id="CorelCorpID_0Corel-Layer"/>
  <g>
  </g>
  <g style="clip-path:url(#id0)">
   <g>
    <path class="fil0 str0" d="M3734 1621c1795,0 3250,1455 3250,3250 0,1795 -1455,3250 -3250,3250 -1795,0 -3250,-1455 -3250,-3250 0,-1795 1455,-3250 3250,-3250zm0 500c1519,0 2750,1231 2750,2750 0,1519 -1231,2750 -2750,2750 -1519,0 -2750,-1231 -2750,-2750 0,-1519 1231,-2750 2750,-2750z"/>
    <path class="fil0 str0" d="M3734 2596c1242,0 2250,1007 2250,2250 0,1243 -1008,2250 -2250,2250 -1243,0 -2250,-1007 -2250,-2250 0,-1243 1007,-2250 2250,-2250zm0 500c966,0 1750,783 1750,1750 0,966 -784,1750 -1750,1750 -967,0 -1750,-784 -1750,-1750 0,-967 783,-1750 1750,-1750z"/>
    <path class="fil0 str0" d="M3734 3596c690,0 1250,559 1250,1250 0,690 -560,1250 -1250,1250 -691,0 -1250,-560 -1250,-1250 0,-691 559,-1250 1250,-1250zm0 500c414,0 750,336 750,750 0,414 -336,750 -750,750 -414,0 -750,-336 -750,-750 0,-414 336,-750 750,-750z"/>
   </g>
  </g>
  <polygon class="fil1" points="192,1857 3734,-1685 7276,1857 3734,5399 "/>
  <circle class="fil0 str1" cx="3734" cy="4947" r="350"/>
  <circle class="fil0 str2" cx="5044" cy="4618" r="868"/>
  <path class="fil2 str3" d="M4751 4843l190 -240 -160 -214c-15,-21 -26,-39 -33,-54 -8,-15 -12,-29 -12,-43 0,-14 7,-26 22,-37 14,-12 32,-17 53,-17 24,0 42,6 55,18 14,12 32,35 56,68l127 179 135 -179c11,-15 21,-28 29,-38 8,-11 15,-20 23,-27 7,-7 15,-12 24,-16 9,-4 20,-5 32,-5 21,0 39,5 53,17 13,11 20,24 20,39 0,23 -15,53 -44,92l-167 217 179 240c16,21 28,38 35,52 8,14 11,27 11,39 0,12 -3,23 -9,32 -7,10 -16,18 -28,23 -12,6 -25,9 -41,9 -16,0 -29,-3 -41,-9 -11,-6 -20,-13 -27,-22 -6,-8 -19,-25 -38,-50l-149 -204 -159 210c-12,17 -20,28 -26,35 -5,7 -11,13 -18,19 -8,7 -16,12 -26,15 -11,4 -22,6 -36,6 -20,0 -38,-6 -51,-17 -14,-11 -21,-27 -21,-48 0,-24 14,-55 42,-90z"/>
 </g>
</svg>
